<?xml version="1.0" standalone="no"?>
<!DOCTYPE svg PUBLIC "-//W3C//DTD SVG 20010904//EN"
 "http://www.w3.org/TR/2001/REC-SVG-20010904/DTD/svg10.dtd">
<svg version="1.0" xmlns="http://www.w3.org/2000/svg"
 width="256.000000pt" height="256.000000pt" viewBox="0 0 256.000000 256.000000"
 preserveAspectRatio="xMidYMid meet">
<metadata>
Created by potrace 1.11, written by Peter Selinger 2001-2013
</metadata>
<g transform="translate(0.000000,256.000000) scale(0.100000,-0.100000)"
fill="#000000" stroke="none">
<path d="M1075 2544 c-97 -18 -198 -45 -212 -57 -7 -5 -13 -7 -13 -3 0 4 -18
-3 -40 -14 -22 -11 -40 -17 -40 -14 0 4 -9 -1 -21 -12 -12 -10 -22 -18 -23
-17 -4 6 -46 -11 -46 -18 0 -5 -3 -8 -7 -7 -7 3 -81 -43 -161 -97 -30 -21 -87
-72 -141 -126 -58 -58 -157 -179 -147 -179 3 0 -3 -9 -13 -19 -35 -35 -157
-298 -154 -331 0 -3 -4 -16 -9 -30 -11 -27 -19 -63 -21 -97 0 -13 -3 -23 -7
-23 -9 0 -13 -70 -14 -220 0 -145 5 -207 23 -267 5 -18 8 -33 5 -33 -3 0 0 -8
5 -18 6 -11 12 -30 15 -43 13 -62 16 -73 23 -78 5 -3 9 -13 11 -21 5 -25 66
-155 74 -158 5 -2 8 -9 8 -16 0 -7 9 -22 20 -34 12 -12 18 -22 15 -22 -14 0
96 -139 165 -209 43 -45 133 -120 180 -151 12 -8 28 -21 36 -27 7 -7 16 -13
20 -13 4 0 29 -13 56 -30 26 -16 55 -30 63 -30 8 0 15 -4 15 -10 0 -5 8 -10
18 -10 10 0 23 -5 29 -11 6 -6 17 -12 24 -13 8 -2 21 -6 29 -9 34 -14 159 -47
191 -51 19 -3 34 -5 34 -6 0 -14 317 -20 395 -8 25 4 56 10 70 13 14 2 35 7
48 9 20 5 70 19 112 34 8 3 18 6 22 6 3 1 10 4 14 8 4 5 16 8 26 8 10 0 18 5
18 10 0 6 3 9 8 8 12 -3 56 13 72 27 8 8 17 13 20 12 8 -2 130 72 147 88 8 8
17 15 21 15 4 0 22 14 40 31 17 16 32 28 32 25 0 -7 128 122 158 160 13 16 40
54 60 84 21 30 40 57 43 60 8 6 108 207 108 218 1 4 10 34 21 68 11 33 23 71
25 85 3 13 7 35 10 49 16 79 19 118 20 245 0 142 -4 190 -25 280 -6 28 -13 58
-15 67 -2 9 -8 25 -13 35 -6 10 -10 22 -10 26 0 44 -151 337 -174 337 -5 0 -6
5 -3 10 3 6 1 10 -4 10 -6 0 -11 4 -11 9 0 25 -160 185 -255 256 -22 16 -42
32 -45 35 -8 8 -62 39 -100 58 -19 9 -36 20 -38 25 -2 4 -12 7 -23 7 -10 0
-19 4 -19 8 0 5 -30 19 -67 31 -38 13 -77 27 -88 32 -11 5 -31 11 -45 13 -14
2 -36 8 -50 14 -14 5 -37 9 -52 8 -16 -1 -28 2 -28 6 0 8 7 8 -190 12 -101 2
-180 -2 -225 -10z"/>
</g>
</svg>
